<?xml version="1.0" encoding="UTF-8"?>
<svg width="32px" height="32px" viewBox="0 0 32 32" version="1.1" xmlns="http://www.w3.org/2000/svg" xmlns:xlink="http://www.w3.org/1999/xlink">
    <!-- Generator: Sketch 46.1 (44463) - http://www.bohemiancoding.com/sketch -->
    <title>建順老人內頁</title>
    <desc>Created with Sketch.</desc>
    <defs></defs>
    <g id="Page-1" stroke="none" stroke-width="1" fill="none" fill-rule="evenodd">
        <g id="建順老人內頁" transform="translate(-249.000000, -935.000000)" stroke-width="2" stroke="#52D3B7">
            <g id="Group" transform="translate(250.000000, 936.000000)">
                <g id="健順體系-copy">
                    <path d="M0,0 L30.1176471,0 L30.1176471,30.1176471 L0,30.1176471 L0,0 Z M9.7254902,15.8443922 L20.3921569,15.8443922 L20.3921569,30.1176471 L9.7254902,30.1176471 L9.7254902,15.8443922 Z M3.21443137,15.8443922 L6.13019608,15.8443922 L6.13019608,25.3603137 L3.21443137,25.3603137 L3.21443137,15.8443922 Z M23.9353725,15.8443922 L26.8505098,15.8443922 L26.8505098,25.3603137 L23.9353725,25.3603137 L23.9353725,15.8443922 Z M3.21443137,3.33427451 L6.13019608,3.33427451 L6.13019608,12.851451 L3.21443137,12.851451 L3.21443137,3.33427451 Z M23.9353725,3.33427451 L26.8505098,3.33427451 L26.8505098,12.851451 L23.9353725,12.851451 L23.9353725,3.33427451 Z M17.0277647,3.33427451 L19.9441569,3.33427451 L19.9441569,12.851451 L17.0277647,12.851451 L17.0277647,3.33427451 Z M10.1214118,3.33427451 L13.0378039,3.33427451 L13.0378039,12.851451 L10.1214118,12.851451 L10.1214118,3.33427451 Z" id="Imported-Layers"></path>
                </g>
            </g>
        </g>
    </g>
</svg>